<svg xmlns="http://www.w3.org/2000/svg" viewBox="0 0 77.1 43.65"><defs><style>.cls-1{fill:#79845b;}.cls-2{fill:none;}.cls-2,.cls-3,.cls-4{stroke:#fff;stroke-miterlimit:10;}.cls-3,.cls-4{stroke-width:0.1px;}.cls-3{fill-rule:evenodd;}.cls-5{fill:#fff;}</style></defs><g id="Capa_4" data-name="Capa 4"><path class="cls-1" d="M0,0H77.1a0,0,0,0,1,0,0V35.29a8.36,8.36,0,0,1-8.36,8.36H8.4A8.4,8.4,0,0,1,0,35.26V0A0,0,0,0,1,0,0Z"/></g><g id="Capa_3" data-name="Capa 3"><rect class="cls-2" x="4.91" y="4.28" width="68.12" height="35.53" rx="6.23"/><line class="cls-2" x1="4.91" y1="33.58" x2="43.6" y2="33.58"/></g><g id="Capa_2" data-name="Capa 2"><path class="cls-3" d="M41.75,19.42c0-3.41,0-6.81,0-10.22,0-1.09,0-2,1.52-1.52a.74.74,0,0,0,.33,0c3.38-.2,3.75.14,3.75,3.58q0,9.3,0,18.59c0,.67.28,1.6-.86,1.64-1.32,0-.92-1-.92-1.69,0-6,0-11.95,0-17.92a13.25,13.25,0,0,0-.1-1.67,1,1,0,0,0-1.89,0,8.33,8.33,0,0,0-.07,1.5V30c0,.71.19,1.59-1,1.52s-.76-.92-.77-1.52C41.74,26.45,41.75,22.93,41.75,19.42Z"/><path class="cls-3" d="M58.16,25c.25-2.95.49-5.8.73-8.65.2-2.44.43-4.88.6-7.33,0-.69.24-1.34,1-1.27s.82.75.77,1.43c-.58,7-1.14,13.89-1.72,20.83-.07.78-.19,1.63-1.3,1.59s-1.75-.39-1.84-1.65c-.34-4.78-.75-9.56-1.15-14.33-.18-2.11-.44-4.22-.59-6.33,0-.63-.51-1.59.68-1.71s1.05.78,1.11,1.49c.39,4.78.76,9.56,1.15,14.34C57.6,23.92,57.37,24.54,58.16,25Z"/><path class="cls-3" d="M28.46,19.61c0-3.35,0-6.7,0-10,0-1.37.23-2.34,1.95-2a4.36,4.36,0,0,0,1.32-.15c1.36-.17,2.23.45,2.29,1.8.13,2.5.1,5,.16,7.53,0,.6-.3,1.07-.8,1.09s-.94-.49-.94-1.12c0-1.57,0-3.13,0-4.69,0-.82.36-2.06-1-2.13-1.5-.07-1.14,1.33-1.15,2.14-.06,6,0,11.94,0,17.92,0,.64.3,1.45-.75,1.52s-1.05-.77-1.05-1.5C28.45,26.53,28.46,23.07,28.46,19.61Z"/><path class="cls-3" d="M22.1,19.66c0-3.51,0-7,0-10.54,0-1.09.24-1.77,1.51-1.52a.49.49,0,0,0,.17,0c3.69-.05,3.7-.05,3.81,3.65.05,1.78.06,3.56.11,5.34,0,.68-.12,1.33-.91,1.3S26,17.24,26,16.65c0-1.62,0-3.24,0-4.86A3.9,3.9,0,0,0,25.7,10a1,1,0,0,0-1-.54.84.84,0,0,0-.83.7,7.34,7.34,0,0,0-.13,1.48c0,6.14,0,12.28,0,18.41,0,.51.25,1.22-.53,1.41-1.07.26-1.16-.42-1.15-1.25C22.11,26.69,22.1,23.18,22.1,19.66Z"/><path class="cls-3" d="M15.66,8.85c-.21.24-.43.47-.65.71-1.51-.21-1.87.52-1.85,1.94.06,5.91,0,11.83,0,17.75v1c0,.65,0,1.28-.93,1.25s-.78-.64-.78-1.21v-5c0-4.58,0-9.16,0-13.74,0-.87.16-1.83-1.13-2.06a.83.83,0,0,1-.51-1,1,1,0,0,1,.85-.9c1.28,0,2.57,0,3.85,0C15.34,7.62,15,8.75,15.66,8.85Z"/><path class="cls-4" d="M53.93,18.85h-.06c0-2.9,0-5.8,0-8.7,0-1.92-.69-2.69-2.48-2.87S48.74,8,48.45,9.75c0,.11,0,.22,0,.34-.12,6.35-.22,12.71.06,19.07.08,2,.93,2.6,2.77,2.57s2.6-.67,2.65-2.68C54,25.66,53.93,22.25,53.93,18.85ZM51.26,29.37c-.91,0-1.14-.85-1.14-1.73q0-8,0-16c0-.8.17-1.54,1.06-1.6s1.06.78,1.06,1.54v16C52.25,28.37,52.28,29.36,51.26,29.37Z"/><path class="cls-4" d="M21.05,24.2c0-.72-.2-1.23-1-1.21s-.82.69-.81,1.33c0,1.33,0,2.67-.06,4,0,.64-.14,1.29-1,1.28s-.93-.63-1-1.28c-.26-2.06.13-4.11,0-6.17-.1-1.52.45-2.36,2.07-2.24,1.32.1,1.8-.58,1.79-1.8,0-2.57,0-5.13,0-7.7,0-1.35-.22-2.55-1.81-3a2.82,2.82,0,0,0-3.53,1.42c-.17.27-.84.09-.65.71a3.55,3.55,0,0,1,.38,2.26c0,5.69,0,11.37,0,17.06,0,2,.86,2.82,2.69,2.85S20.86,31,21,29.05C21.08,27.44,21,25.82,21.05,24.2ZM17.2,10.45a1,1,0,0,1,1-1.13c.68,0,1,.5,1,1.11,0,2.22.09,4.45.11,6.67,0,.72-.45.91-1.13.87s-1.05-.29-1.05-1V13.8h.07C17.19,12.68,17.17,11.57,17.2,10.45Z"/><path class="cls-4" d="M67.28,30.05c0-3.29,0-6.58,0-9.88,0-3.45,0-6.91,0-10.37a2.37,2.37,0,0,0-2.53-2.52,2.4,2.4,0,0,0-2.85,2.16,38.28,38.28,0,0,0-.13,4c0,.49.15.85.76.87s.9-.32.91-.91c0-.84,0-1.68,0-2.51.05-.67.14-1.4,1.09-1.38s1.06.68,1.06,1.4c0,1.84,0,3.68,0,5.52,0,1.1-.37,1.5-1.44,1.48-1.72,0-2.32,1-2.33,2.56,0,2.62-.13,5.23,0,7.86.14,3.27.22,3.41,3.43,3.07a1.62,1.62,0,0,1,.66,0C67.2,31.76,67.29,31,67.28,30.05Zm-1.74-5.54c0,1.22.06,2.44,0,3.66,0,.67-.43,1.41-1.18,1.41-.9,0-.89-.88-.9-1.52,0-2.06,0-4.12,0-6.17a2,2,0,0,1,.44-1.4c.31-.34.63-.67,1.13-.54s.59.59.59,1.06c0,1.16,0,2.33,0,3.5Z"/><path class="cls-4" d="M40.54,30.16c0-3.34,0-6.69,0-10h0c0-3.52,0-7,0-10.55,0-1.56-1-2.17-2.37-2.26s-2.66.27-2.89,1.86a29.8,29.8,0,0,0-.12,4,.88.88,0,0,0,.77,1,1,1,0,0,0,.89-1c0-.67,0-1.34,0-2s0-1.54,1.06-1.56,1.08.82,1.09,1.53c0,1.84,0,3.68,0,5.52,0,.91-.32,1.27-1.25,1.36-2,.19-2.51.65-2.57,2.71-.08,2.9-.08,5.81,0,8.71.06,2,.91,2.58,3,2.13a2.55,2.55,0,0,1,1.15-.11C40.43,31.71,40.55,31.12,40.54,30.16ZM39,21.42c0,1,0,2.11,0,3.17h-.06c0,1.28,0,2.56,0,3.83,0,.5-.11,1.07-.74,1.15s-1-.44-1.21-1a2,2,0,0,1-.16-.8c0-2.11,0-4.23,0-6.34,0-.91.39-1.51,1.37-1.52S38.94,20.82,39,21.42Z"/><path d="M47.2,33.1H45.68v1.49H47.2v.32H45.68V36.4H47.2v.32h-2V32.78h2Z"/><path d="M49,32.78l.46,2.79.45-2.79h.55l-.75,3.94h-.51l-.76-3.94Z"/><path d="M53.78,33.1H52.26v1.49h1.52v.32H52.26V36.4h1.52v.32h-2V32.78h2Z"/><path d="M55.85,32.78l.74,2.93V32.78h.51v3.94h-.79l-.73-2.93v2.93h-.51V32.78Z"/><path d="M60.42,33.1h-.76v3.62h-.51V33.1H58.4v-.32h2Z"/><path d="M63.73,36.23a.42.42,0,0,1-.21.35,1,1,0,0,1-.54.14h-.51a.91.91,0,0,1-.53-.14.42.42,0,0,1-.23-.35v-3a.44.44,0,0,1,.23-.35,1,1,0,0,1,.53-.14H63a1.06,1.06,0,0,1,.54.14.42.42,0,0,1,.21.35Zm-1.37-3a.3.3,0,0,0-.15.24v2.62a.3.3,0,0,0,.15.24.66.66,0,0,0,.37.1.6.6,0,0,0,.35-.1.3.3,0,0,0,.15-.24V33.44a.3.3,0,0,0-.15-.24.68.68,0,0,0-.35-.1A.76.76,0,0,0,62.36,33.2Z"/><path d="M67.14,33.76h-.5v-.32a.3.3,0,0,0-.15-.24.68.68,0,0,0-.35-.1.69.69,0,0,0-.36.1.31.31,0,0,0-.16.24l0,.32v.17c0,.26.27.5.76.73a1.07,1.07,0,0,1,.74,1.08v.49a.41.41,0,0,1-.22.35.93.93,0,0,1-.53.14h-.51a.93.93,0,0,1-.53-.14.42.42,0,0,1-.23-.35v-.49h.5v.32a.29.29,0,0,0,.16.24.61.61,0,0,0,.36.1.6.6,0,0,0,.35-.1.3.3,0,0,0,.15-.24v-.49c0-.25-.26-.49-.76-.72a1.11,1.11,0,0,1-.75-1.09v-.49a.44.44,0,0,1,.23-.35,1,1,0,0,1,.53-.14h.51a1,1,0,0,1,.53.14.41.41,0,0,1,.22.35Z"/></g><g id="Capa_5" data-name="Capa 5"><path class="cls-5" d="M20.32,4.17S19.85,3,23.21,3h5.9v-1A50.73,50.73,0,0,0,39.63.52L39.1,4.2Z"/><path class="cls-5" d="M58.94,4.17S59.4,3,56,3h-5.9v-1A50.68,50.68,0,0,1,39.63.52L39.1,4.2Z"/></g></svg>